<svg width="296" height="333" viewBox="0 0 296 333" fill="none" xmlns="http://www.w3.org/2000/svg">
<g filter="url(#filter0_ddddd_1533_1703)">
<path d="M278.406 272.988C278.168 273.792 277.345 274.234 276.569 273.976L263.913 269.772C263.136 269.514 262.7 268.654 262.938 267.85C263.176 267.046 263.999 266.603 264.775 266.861L276.025 270.598L279.474 258.955C279.713 258.151 280.535 257.708 281.312 257.966C282.089 258.224 282.525 259.085 282.287 259.889L278.406 272.988ZM53.9097 106.418L54.6455 105.104L53.9097 106.418ZM40.4224 96.2542L39.4595 97.3966L40.4224 96.2542ZM109.91 121.465L109.767 122.984L109.91 121.465ZM251.256 221.759L249.957 222.458L251.256 221.759ZM90.6764 119.252L90.5334 120.771L90.6764 119.252ZM54.173 106.579L54.9089 105.266L54.173 106.579ZM39.2366 95.1711L40.1995 94.0287L39.2366 95.1711ZM43.1368 9.22514L43.6118 10.6781L43.1368 9.22514ZM64.1712 3.66664L61.6013 4.54308L60.6513 1.63705L63.2212 0.760615L64.1712 3.66664ZM56.4614 6.29595L51.3216 8.04883L50.3716 5.14281L55.5115 3.38993L56.4614 6.29595ZM46.1817 9.80171L43.6118 10.6781L42.6618 7.77212L45.2318 6.89569L46.1817 9.80171ZM43.6118 10.6781C42.6517 11.0056 41.7141 11.3664 40.7995 11.7588L39.6468 8.93074C40.628 8.50972 41.6333 8.1229 42.6618 7.77212L43.6118 10.6781ZM35.4673 14.5566C33.7429 15.6413 32.1247 16.8506 30.6181 18.1683L28.7069 15.8185C30.3269 14.4017 32.0667 13.1015 33.9202 11.9356L35.4673 14.5566ZM26.3675 22.5142C25.0549 24.0819 23.8664 25.7471 22.8081 27.492L20.3138 25.8377C21.4502 23.964 22.7269 22.175 24.1375 20.4903L26.3675 22.5142ZM20.0158 32.9816C19.2196 34.8832 18.562 36.847 18.0494 38.8546L15.2055 38.0345C15.7557 35.8798 16.4614 33.7722 17.3159 31.7312L20.0158 32.9816ZM16.9534 44.9778C16.7379 47.0374 16.671 49.1216 16.7587 51.2122L13.8198 51.3056C13.7255 49.0588 13.7975 46.8199 14.0289 44.6081L16.9534 44.9778ZM17.4776 57.4142C17.8649 59.4392 18.4036 61.4541 19.099 63.4426L16.3358 64.4538C15.5883 62.3164 15.0092 60.1501 14.5926 57.9726L17.4776 57.4142ZM21.5806 69.1587C22.0583 70.0711 22.5726 70.9743 23.1244 71.8664L20.6559 73.4956C20.0648 72.5399 19.5133 71.5717 19.0008 70.5927L21.5806 69.1587ZM23.1778 71.9596C23.7258 72.9984 24.2951 74.0239 24.8853 75.0354L22.3752 76.5955C21.7625 75.5454 21.1715 74.4808 20.6026 73.4023L23.1778 71.9596ZM28.6801 80.943C30.0272 82.8544 31.454 84.7042 32.9563 86.4871L30.7542 88.4841C29.1946 86.6332 27.7133 84.7128 26.3148 82.7285L28.6801 80.943ZM37.6806 91.6248C38.5027 92.4443 39.3425 93.2458 40.1995 94.0287L38.2738 96.3135C37.3841 95.5007 36.5122 94.6686 35.6588 93.8179L37.6806 91.6248ZM40.1995 94.0287L40.4959 94.2995L38.5702 96.5842L38.2738 96.3135L40.1995 94.0287ZM41.0888 94.841L41.3853 95.1118L39.4595 97.3966L39.1631 97.1258L41.0888 94.841ZM41.3853 95.1118C42.4128 96.0504 43.4608 96.9634 44.5285 97.8501L42.7104 100.229C41.6062 99.3116 40.5222 98.3673 39.4595 97.3966L41.3853 95.1118ZM51.1661 102.852C52.3085 103.631 53.4686 104.382 54.6455 105.104L53.1739 107.731C51.9566 106.984 50.7568 106.207 49.5753 105.402L51.1661 102.852ZM54.6455 105.104L54.7113 105.145L53.2397 107.772L53.1739 107.731L54.6455 105.104ZM54.843 105.225L54.9089 105.266L53.4372 107.893L53.3714 107.852L54.843 105.225ZM54.9089 105.266C55.8238 105.828 56.7472 106.372 57.6786 106.899L56.2984 109.58C55.3362 109.035 54.3823 108.473 53.4372 107.893L54.9089 105.266ZM63.3729 109.855C65.3044 110.771 67.2646 111.615 69.2496 112.386L68.2514 115.248C66.2009 114.452 64.176 113.58 62.1807 112.633L63.3729 109.855ZM75.279 114.479C77.3098 115.102 79.3617 115.651 81.4307 116.124L80.8347 119.109C78.6974 118.621 76.5778 118.054 74.4799 117.41L75.279 114.479ZM87.6735 117.312C88.719 117.471 89.7678 117.612 90.8194 117.733L90.5334 120.771C89.447 120.646 88.3636 120.501 87.2836 120.337L87.6735 117.312ZM90.8194 117.733L93.2236 118.009L92.9376 121.048L90.5334 120.771L90.8194 117.733ZM98.032 118.562L102.84 119.116L102.554 122.154L97.746 121.601L98.032 118.562ZM107.649 119.669L110.053 119.946L109.767 122.984L107.363 122.708L107.649 119.669ZM110.053 119.946C111.043 120.06 112.031 120.182 113.017 120.312L112.683 123.345C111.713 123.216 110.741 123.096 109.767 122.984L110.053 119.946ZM118.921 121.195C120.888 121.524 122.847 121.885 124.797 122.279L124.272 125.28C122.354 124.892 120.427 124.537 118.491 124.214L118.921 121.195ZM130.638 123.562C132.581 124.024 134.514 124.518 136.437 125.043L135.723 127.999C133.832 127.482 131.93 126.996 130.018 126.542L130.638 123.562ZM142.189 126.722C144.1 127.314 146 127.939 147.888 128.595L146.988 131.493C145.131 130.848 143.262 130.233 141.382 129.65L142.189 126.722ZM153.526 130.661C155.397 131.382 157.254 132.135 159.098 132.918L158.016 135.746C156.202 134.975 154.375 134.235 152.534 133.525L153.526 130.661ZM164.599 135.363C166.422 136.21 168.229 137.087 170.022 137.993L168.763 140.739C166.999 139.847 165.221 138.984 163.428 138.151L164.599 135.363ZM175.361 140.807C177.127 141.775 178.877 142.772 180.611 143.799L179.18 146.451C177.474 145.44 175.752 144.459 174.015 143.507L175.361 140.807ZM185.765 146.968C187.467 148.053 189.152 149.167 190.819 150.309L189.222 152.855C187.582 151.732 185.925 150.636 184.25 149.568L185.765 146.968ZM195.766 153.82C197.397 155.018 199.009 156.243 200.603 157.496L198.847 159.925C197.28 158.693 195.694 157.487 194.09 156.309L195.766 153.82ZM205.322 161.333C206.875 162.638 208.408 163.97 209.92 165.328L208.014 167.63C206.526 166.295 205.018 164.984 203.49 163.7L205.322 161.333ZM214.391 169.476C215.859 170.883 217.306 172.315 218.731 173.772L216.682 175.938C215.28 174.504 213.856 173.095 212.412 171.711L214.391 169.476ZM222.934 178.213C224.311 179.715 225.665 181.242 226.997 182.793L224.813 184.812C223.503 183.286 222.171 181.784 220.817 180.306L222.934 178.213ZM230.913 187.507C232.193 189.098 233.449 190.713 234.681 192.35L232.372 194.213C231.16 192.603 229.925 191.014 228.666 189.449L230.913 187.507ZM238.294 197.317C239.471 198.991 240.623 200.686 241.75 202.403L239.327 204.103C238.218 202.414 237.085 200.746 235.927 199.1L238.294 197.317ZM245.045 207.602C246.114 209.35 247.157 211.119 248.175 212.909L245.647 214.438C244.646 212.678 243.62 210.938 242.568 209.218L245.045 207.602ZM251.137 218.317C251.616 219.226 252.089 220.141 252.555 221.06L249.957 222.458C249.498 221.553 249.033 220.654 248.561 219.759L251.137 218.317ZM252.555 221.06L253.843 223.598L251.244 224.996L249.957 222.458L252.555 221.06ZM256.417 228.674L258.991 233.75L256.393 235.148L253.819 230.072L256.417 228.674ZM261.566 238.827L264.14 243.903L261.542 245.301L258.967 240.224L261.566 238.827ZM266.715 248.979L269.289 254.055L266.69 255.453L264.116 250.377L266.715 248.979ZM271.863 259.132L274.438 264.208L271.839 265.606L269.265 260.529L271.863 259.132ZM277.012 269.284L278.299 271.822L275.701 273.22L274.414 270.682L277.012 269.284Z" fill="white"/>
</g>
<defs>
<filter id="filter0_ddddd_1533_1703" x="0.779785" y="0.76062" width="294.572" height="331.289" filterUnits="userSpaceOnUse" color-interpolation-filters="sRGB">
<feFlood flood-opacity="0" result="BackgroundImageFix"/>
<feColorMatrix in="SourceAlpha" type="matrix" values="0 0 0 0 0 0 0 0 0 0 0 0 0 0 0 0 0 0 127 0" result="hardAlpha"/>
<feOffset dy="7"/>
<feGaussianBlur stdDeviation="3.5"/>
<feColorMatrix type="matrix" values="0 0 0 0 0 0 0 0 0 0 0 0 0 0 0 0 0 0 0.33 0"/>
<feBlend mode="normal" in2="BackgroundImageFix" result="effect1_dropShadow_1533_1703"/>
<feColorMatrix in="SourceAlpha" type="matrix" values="0 0 0 0 0 0 0 0 0 0 0 0 0 0 0 0 0 0 127 0" result="hardAlpha"/>
<feOffset dy="16"/>
<feGaussianBlur stdDeviation="5"/>
<feColorMatrix type="matrix" values="0 0 0 0 0 0 0 0 0 0 0 0 0 0 0 0 0 0 0.19 0"/>
<feBlend mode="normal" in2="effect1_dropShadow_1533_1703" result="effect2_dropShadow_1533_1703"/>
<feColorMatrix in="SourceAlpha" type="matrix" values="0 0 0 0 0 0 0 0 0 0 0 0 0 0 0 0 0 0 127 0" result="hardAlpha"/>
<feOffset dy="29"/>
<feGaussianBlur stdDeviation="6"/>
<feColorMatrix type="matrix" values="0 0 0 0 0 0 0 0 0 0 0 0 0 0 0 0 0 0 0.06 0"/>
<feBlend mode="normal" in2="effect2_dropShadow_1533_1703" result="effect3_dropShadow_1533_1703"/>
<feColorMatrix in="SourceAlpha" type="matrix" values="0 0 0 0 0 0 0 0 0 0 0 0 0 0 0 0 0 0 127 0" result="hardAlpha"/>
<feOffset dy="45"/>
<feGaussianBlur stdDeviation="6.5"/>
<feColorMatrix type="matrix" values="0 0 0 0 0 0 0 0 0 0 0 0 0 0 0 0 0 0 0.01 0"/>
<feBlend mode="normal" in2="effect3_dropShadow_1533_1703" result="effect4_dropShadow_1533_1703"/>
<feColorMatrix in="SourceAlpha" type="matrix" values="0 0 0 0 0 0 0 0 0 0 0 0 0 0 0 0 0 0 127 0" result="hardAlpha"/>
<feOffset dy="4"/>
<feGaussianBlur stdDeviation="2"/>
<feComposite in2="hardAlpha" operator="out"/>
<feColorMatrix type="matrix" values="0 0 0 0 0 0 0 0 0 0 0 0 0 0 0 0 0 0 0.25 0"/>
<feBlend mode="normal" in2="effect4_dropShadow_1533_1703" result="effect5_dropShadow_1533_1703"/>
<feBlend mode="normal" in="SourceGraphic" in2="effect5_dropShadow_1533_1703" result="shape"/>
</filter>
</defs>
</svg>
