<svg width="352" height="408" viewBox="0 0 352 408" fill="none" xmlns="http://www.w3.org/2000/svg">
<g filter="url(#filter0_ddddd_1533_1698)">
<path d="M21.7346 348.98C22.2428 349.632 23.1685 349.725 23.8022 349.189L34.1303 340.444C34.764 339.907 34.8659 338.944 34.3578 338.292C33.8496 337.64 32.9239 337.547 32.2902 338.084L23.1097 345.857L15.7493 336.416C15.2411 335.765 14.3154 335.671 13.6817 336.208C13.0479 336.745 12.946 337.708 13.4542 338.36L21.7346 348.98ZM31.3743 292.279L29.961 291.875L31.3743 292.279ZM25.4998 323.252L24.0377 323.104L25.4998 323.252ZM197.914 156.191L197.995 154.663L197.914 156.191ZM35.2009 278.429L33.7876 278.025L35.2009 278.429ZM264.711 159.144L264.629 160.671L264.711 159.144ZM297.876 23.878L297.243 25.2662L297.876 23.878ZM256.728 5.73494L259.26 6.95564L260.526 4.17929L257.994 2.95859L256.728 5.73494ZM264.324 9.39705L269.389 11.8385L270.655 9.06211L265.591 6.6207L264.324 9.39705ZM274.453 14.2799L279.518 16.7213L280.784 13.9449L275.72 11.5035L274.453 14.2799ZM284.582 19.1627L289.646 21.6041L290.913 18.8277L285.848 16.3863L284.582 19.1627ZM294.711 24.0455L297.243 25.2662L298.509 22.4899L295.977 21.2692L294.711 24.0455ZM297.243 25.2662C298.081 25.6701 298.907 26.0901 299.72 26.5257L301.094 23.804C300.245 23.3495 299.383 22.9112 298.509 22.4899L297.243 25.2662ZM304.507 29.3567C306.073 30.375 307.586 31.4547 309.045 32.5913L310.829 30.1367C309.306 28.9497 307.726 27.8224 306.091 26.7592L304.507 29.3567ZM313.302 36.2101C314.677 37.4835 315.994 38.8118 317.25 40.1904L319.398 38.0726C318.086 36.633 316.711 35.2458 315.275 33.916L313.302 36.2101ZM320.862 44.5032C322.009 45.9961 323.093 47.5358 324.112 49.1174L326.563 47.3939C325.5 45.7426 324.368 44.1351 323.17 42.5762L320.862 44.5032ZM326.981 54.0007C327.871 55.6709 328.695 57.3787 329.448 59.1191L332.133 57.8348C331.347 56.018 330.488 54.2354 329.558 52.4918L326.981 54.0007ZM331.498 64.4373C332.11 66.2383 332.651 68.067 333.117 69.9186L335.964 69.1078C335.476 67.1749 334.912 65.266 334.274 63.3861L331.498 64.4373ZM334.293 75.5257C334.61 77.4077 334.852 79.3076 335.017 81.2205L337.947 80.9072C337.774 78.9099 337.522 76.9262 337.191 74.9613L334.293 75.5257ZM335.283 86.9644C335.295 88.8755 335.23 90.7946 335.087 92.7172L338.02 92.9131C338.169 90.9052 338.237 88.901 338.225 86.9053L335.283 86.9644ZM334.431 98.4375C334.137 100.324 333.767 102.209 333.319 104.088L336.173 104.788C336.642 102.825 337.028 100.857 337.334 98.887L334.431 98.4375ZM331.761 109.633C331.466 110.543 331.152 111.451 330.818 112.355L333.564 113.416C333.912 112.472 334.239 111.525 334.547 110.576L331.761 109.633ZM330.818 112.355C330.458 113.335 330.077 114.303 329.678 115.258L332.373 116.446C332.79 115.449 333.187 114.438 333.564 113.416L330.818 112.355ZM327.029 120.894C326.061 122.74 325.019 124.532 323.908 126.264L326.349 127.937C327.51 126.128 328.598 124.257 329.608 122.329L327.029 120.894ZM320.338 131.326C319.072 132.963 317.74 134.535 316.347 136.04L318.454 138.145C319.909 136.573 321.299 134.931 322.621 133.223L320.338 131.326ZM311.969 140.368C310.448 141.744 308.87 143.048 307.24 144.276L308.947 146.743C310.648 145.461 312.295 144.1 313.883 142.663L311.969 140.368ZM302.199 147.732C300.472 148.804 298.699 149.798 296.886 150.708L298.137 153.458C300.03 152.507 301.881 151.47 303.684 150.35L302.199 147.732ZM291.344 153.18C289.468 153.916 287.557 154.567 285.617 155.128L286.371 158.073C288.397 157.486 290.392 156.807 292.351 156.039L291.344 153.18ZM279.752 156.534C277.788 156.909 275.801 157.194 273.795 157.386L274.028 160.431C276.122 160.23 278.197 159.932 280.247 159.54L279.752 156.534ZM267.795 157.68C266.797 157.682 265.796 157.661 264.793 157.617L264.629 160.671C265.677 160.718 266.722 160.74 267.763 160.737L267.795 157.68ZM264.793 157.617L262.009 157.494L261.846 160.548L264.629 160.671L264.793 157.617ZM256.443 157.248L250.877 157.002L250.713 160.056L256.28 160.302L256.443 157.248ZM245.31 156.756L239.744 156.509L239.58 159.564L245.147 159.81L245.31 156.756ZM234.177 156.263L228.611 156.017L228.448 159.072L234.014 159.318L234.177 156.263ZM223.044 155.771L217.478 155.525L217.315 158.579L222.881 158.825L223.044 155.771ZM211.912 155.279L206.345 155.033L206.182 158.087L211.748 158.333L211.912 155.279ZM200.779 154.786L197.995 154.663L197.832 157.718L200.615 157.841L200.779 154.786ZM197.995 154.663C196.986 154.619 195.979 154.584 194.972 154.559L194.864 157.615C195.852 157.64 196.841 157.674 197.832 157.718L197.995 154.663ZM188.936 154.525C186.917 154.552 184.905 154.619 182.9 154.724L183.01 157.777C184.979 157.674 186.954 157.609 188.936 157.582L188.936 154.525ZM176.873 155.157C174.86 155.341 172.855 155.564 170.858 155.825L171.188 158.858C173.147 158.602 175.116 158.383 177.092 158.203L176.873 155.157ZM164.869 156.725C162.874 157.065 160.889 157.443 158.915 157.859L159.463 160.855C161.401 160.447 163.35 160.076 165.308 159.742L164.869 156.725ZM153.003 159.223C151.038 159.717 149.084 160.248 147.142 160.816L147.905 163.758C149.811 163.2 151.729 162.679 153.659 162.194L153.003 159.223ZM141.341 162.635C139.415 163.28 137.503 163.961 135.606 164.679L136.579 167.55C138.442 166.846 140.319 166.177 142.21 165.544L141.341 162.635ZM129.946 166.943C128.071 167.735 126.211 168.562 124.369 169.424L125.547 172.209C127.356 171.363 129.182 170.55 131.023 169.773L129.946 166.943ZM118.881 172.12C117.067 173.054 115.27 174.023 113.492 175.025L114.868 177.708C116.614 176.724 118.378 175.773 120.159 174.856L118.881 172.12ZM108.208 178.136C106.464 179.207 104.74 180.311 103.037 181.447L104.603 184.014C106.276 182.898 107.968 181.814 109.68 180.762L108.208 178.136ZM97.9858 184.955C96.3228 186.157 94.6811 187.39 93.0616 188.655L94.8088 191.09C96.399 189.849 98.0109 188.638 99.6437 187.458L97.9858 184.955ZM88.271 192.54C86.6975 193.866 85.1471 195.221 83.6207 196.607L85.5393 198.898C87.038 197.538 88.5603 196.207 90.1052 194.905L88.271 192.54ZM79.117 200.849C77.6417 202.291 76.1912 203.762 74.7664 205.261L76.8459 207.395C78.2449 205.923 79.669 204.479 81.1174 203.063L79.117 200.849ZM70.5753 209.837C69.2068 211.387 67.8648 212.965 66.5501 214.569L68.7792 216.533C70.07 214.958 71.3876 213.409 72.7311 211.887L70.5753 209.837ZM62.6961 219.452C61.4421 221.102 60.2161 222.779 59.0189 224.48L61.3854 226.263C62.5608 224.593 63.7644 222.948 64.9955 221.328L62.6961 219.452ZM55.5237 229.645C54.3914 231.386 53.2884 233.151 52.2156 234.94L54.7065 236.532C55.7597 234.776 56.8425 233.043 57.9541 231.334L55.5237 229.645ZM49.0993 240.358C48.095 242.18 47.1213 244.025 46.1791 245.892L48.7804 247.284C49.7054 245.452 50.6612 243.64 51.6472 241.852L49.0993 240.358ZM43.4591 251.534C42.5884 253.427 41.7495 255.341 40.9432 257.275L43.64 258.459C44.4317 256.56 45.2552 254.681 46.11 252.823L43.4591 251.534ZM38.6359 263.103C37.9038 265.055 37.2043 267.025 36.5383 269.014L39.3152 269.985C39.9692 268.032 40.656 266.097 41.3748 264.182L38.6359 263.103ZM34.6525 275C34.3557 276.004 34.0674 277.012 33.7876 278.025L36.6142 278.833C36.889 277.839 37.1721 276.848 37.4636 275.863L34.6525 275ZM33.7876 278.025L32.8309 281.487L35.6575 282.296L36.6142 278.833L33.7876 278.025ZM30.9176 288.412L29.961 291.875L32.7876 292.683L33.7443 289.221L30.9176 288.412ZM29.961 291.875C29.7256 292.727 29.4961 293.58 29.2725 294.435L32.1105 295.201C32.3304 294.36 32.5561 293.521 32.7876 292.683L29.961 291.875ZM28.0008 299.583C27.6003 301.305 27.2234 303.032 26.8703 304.764L29.7477 305.361C30.0951 303.657 30.4658 301.958 30.8596 300.264L28.0008 299.583ZM25.8819 309.976C25.5762 311.717 25.2944 313.463 25.0364 315.212L27.9441 315.636C28.1978 313.916 28.475 312.199 28.7756 310.486L25.8819 309.976ZM24.3346 320.469C24.2297 321.347 24.1307 322.225 24.0377 323.104L26.9618 323.399C27.0532 322.534 27.1506 321.67 27.2538 320.807L24.3346 320.469ZM24.0377 323.104L23.7106 326.199L26.6346 326.494L26.9618 323.399L24.0377 323.104ZM23.0562 332.388L22.4018 338.577L25.3258 338.872L25.9802 332.683L23.0562 332.388ZM21.7474 344.767L21.4202 347.861L24.3442 348.156L24.6714 345.061L21.7474 344.767Z" fill="url(#paint0_linear_1533_1698)"/>
</g>
<defs>
<filter id="filter0_ddddd_1533_1698" x="0.130859" y="0.958591" width="351.095" height="406.579" filterUnits="userSpaceOnUse" color-interpolation-filters="sRGB">
<feFlood flood-opacity="0" result="BackgroundImageFix"/>
<feColorMatrix in="SourceAlpha" type="matrix" values="0 0 0 0 0 0 0 0 0 0 0 0 0 0 0 0 0 0 127 0" result="hardAlpha"/>
<feOffset dy="2"/>
<feGaussianBlur stdDeviation="2"/>
<feColorMatrix type="matrix" values="0 0 0 0 0 0 0 0 0 0 0 0 0 0 0 0 0 0 0.38 0"/>
<feBlend mode="normal" in2="BackgroundImageFix" result="effect1_dropShadow_1533_1698"/>
<feColorMatrix in="SourceAlpha" type="matrix" values="0 0 0 0 0 0 0 0 0 0 0 0 0 0 0 0 0 0 127 0" result="hardAlpha"/>
<feOffset dy="7"/>
<feGaussianBlur stdDeviation="3.5"/>
<feColorMatrix type="matrix" values="0 0 0 0 0 0 0 0 0 0 0 0 0 0 0 0 0 0 0.33 0"/>
<feBlend mode="normal" in2="effect1_dropShadow_1533_1698" result="effect2_dropShadow_1533_1698"/>
<feColorMatrix in="SourceAlpha" type="matrix" values="0 0 0 0 0 0 0 0 0 0 0 0 0 0 0 0 0 0 127 0" result="hardAlpha"/>
<feOffset dy="16"/>
<feGaussianBlur stdDeviation="5"/>
<feColorMatrix type="matrix" values="0 0 0 0 0 0 0 0 0 0 0 0 0 0 0 0 0 0 0.19 0"/>
<feBlend mode="normal" in2="effect2_dropShadow_1533_1698" result="effect3_dropShadow_1533_1698"/>
<feColorMatrix in="SourceAlpha" type="matrix" values="0 0 0 0 0 0 0 0 0 0 0 0 0 0 0 0 0 0 127 0" result="hardAlpha"/>
<feOffset dy="29"/>
<feGaussianBlur stdDeviation="6"/>
<feColorMatrix type="matrix" values="0 0 0 0 0 0 0 0 0 0 0 0 0 0 0 0 0 0 0.06 0"/>
<feBlend mode="normal" in2="effect3_dropShadow_1533_1698" result="effect4_dropShadow_1533_1698"/>
<feColorMatrix in="SourceAlpha" type="matrix" values="0 0 0 0 0 0 0 0 0 0 0 0 0 0 0 0 0 0 127 0" result="hardAlpha"/>
<feOffset dy="45"/>
<feGaussianBlur stdDeviation="6.5"/>
<feColorMatrix type="matrix" values="0 0 0 0 0 0 0 0 0 0 0 0 0 0 0 0 0 0 0.01 0"/>
<feBlend mode="normal" in2="effect4_dropShadow_1533_1698" result="effect5_dropShadow_1533_1698"/>
<feBlend mode="normal" in="SourceGraphic" in2="effect5_dropShadow_1533_1698" result="shape"/>
</filter>
<linearGradient id="paint0_linear_1533_1698" x1="336.283" y1="14.4581" x2="25.5682" y2="285.09" gradientUnits="userSpaceOnUse">
<stop/>
<stop offset="1" stop-color="white"/>
</linearGradient>
</defs>
</svg>
