<svg width="308" height="378" viewBox="0 0 308 378" fill="none" xmlns="http://www.w3.org/2000/svg">
<g filter="url(#filter0_ddddd_1533_1716)">
<path d="M283.455 319.146C284.075 319.706 285.013 319.657 285.549 319.035L294.283 308.909C294.819 308.287 294.751 307.33 294.13 306.769C293.509 306.209 292.571 306.259 292.035 306.88L284.271 315.882L275.279 307.767C274.658 307.207 273.721 307.257 273.185 307.878C272.649 308.5 272.717 309.458 273.338 310.018L283.455 319.146ZM282.022 284.543L283.503 284.464L282.022 284.543ZM23.7768 49.9969L25.1206 50.6708L23.7768 49.9969ZM45.0893 0.69197L43.6733 3.73141L46.3609 5.07926L47.7769 2.03982L45.0893 0.69197ZM40.8412 9.81028L38.0092 15.8892L40.6968 17.237L43.5288 11.1581L40.8412 9.81028ZM35.1772 21.968L32.3451 28.0469L35.0327 29.3948L37.8648 23.3159L35.1772 21.968ZM29.5131 34.1258L26.6811 40.2047L29.3687 41.5525L32.2007 35.4736L29.5131 34.1258ZM23.849 46.2835L22.433 49.323L25.1206 50.6708L26.5366 47.6314L23.849 46.2835ZM22.433 49.323C21.9911 50.2716 21.5672 51.2222 21.1613 52.1743L23.8891 53.4322C24.282 52.5104 24.6925 51.5898 25.1206 50.6708L22.433 49.323ZM18.9194 57.9609C18.2291 59.9375 17.6134 61.9183 17.0704 63.9008L19.9321 64.7737C20.4568 62.858 21.052 60.9432 21.7196 59.0315L18.9194 57.9609ZM15.6337 69.9695C15.222 72.028 14.8866 74.0854 14.6252 76.1387L17.5707 76.5918C17.8229 74.6099 18.1468 72.6237 18.5444 70.6359L15.6337 69.9695ZM14.0562 82.3772C13.9398 84.4774 13.8996 86.57 13.9329 88.6521L16.9026 88.6674C16.8704 86.6584 16.9092 84.6392 17.0215 82.6126L14.0562 82.3772ZM14.2573 94.9296C14.4405 97.0272 14.6977 99.1104 15.0263 101.176L17.9578 100.753C17.6406 98.7595 17.3923 96.749 17.2155 94.7249L14.2573 94.9296ZM16.2335 107.359C16.709 109.41 17.2551 111.441 17.8689 113.446L20.7023 112.6C20.1095 110.663 19.5822 108.702 19.1231 106.722L16.2335 107.359ZM19.9201 119.408C20.6726 121.374 21.4911 123.311 22.373 125.217L25.0538 123.972C24.2016 122.13 23.4107 120.258 22.6837 118.359L19.9201 119.408ZM25.2119 130.845C26.2213 132.69 27.2918 134.498 28.4205 136.268L30.8997 134.655C29.8084 132.943 28.7736 131.195 27.7978 129.412L25.2119 130.845ZM31.9817 141.461C33.2256 143.151 34.5253 144.799 35.8779 146.401L38.1104 144.452C36.8025 142.903 35.5458 141.31 34.343 139.676L31.9817 141.461ZM40.091 151.064C41.5454 152.569 43.0501 154.025 44.6022 155.428L46.5452 153.179C45.0448 151.823 43.5902 150.416 42.184 148.96L40.091 151.064ZM49.3918 159.47C51.0306 160.76 52.7139 161.995 54.439 163.17L56.0516 160.662C54.3849 159.526 52.7584 158.333 51.1746 157.087L49.3918 159.47ZM59.7215 166.505C61.515 167.552 63.3471 168.536 65.2152 169.456L66.4591 166.733C64.6555 165.845 62.8864 164.894 61.1542 163.883L59.7215 166.505ZM70.894 172.003C72.8077 172.78 74.7539 173.49 76.73 174.13L77.5734 171.245C75.6664 170.627 73.7882 169.942 71.9411 169.192L70.894 172.003ZM82.693 175.824C84.6871 176.312 86.7073 176.729 88.7514 177.073L89.1734 174.084C87.2009 173.752 85.2515 173.35 83.3274 172.879L82.693 175.824ZM94.8723 177.873C96.9031 178.063 98.9539 178.18 101.023 178.222L101.018 175.193C99.0206 175.153 97.0407 175.039 95.0806 174.856L94.8723 177.873ZM107.17 178.126C109.194 178.021 111.233 177.844 113.283 177.592L112.866 174.584C110.883 174.828 108.912 174.999 106.956 175.1L107.17 178.126ZM119.336 176.636C120.339 176.442 121.346 176.23 122.354 176L121.646 173.042C120.669 173.266 119.695 173.471 118.723 173.659L119.336 176.636ZM122.497 175.959C123.407 175.65 124.318 175.352 125.229 175.067L124.302 172.169C123.368 172.461 122.436 172.766 121.504 173.083L122.497 175.959ZM130.722 173.49C132.576 173.007 134.431 172.572 136.286 172.184L135.63 169.215C133.729 169.613 131.828 170.059 129.929 170.554L130.722 173.49ZM141.923 171.151C143.818 170.852 145.712 170.602 147.604 170.399L147.232 167.386C145.293 167.593 143.351 167.85 141.408 168.156L141.923 171.151ZM153.316 169.932C155.232 169.824 157.143 169.764 159.048 169.752L158.966 166.722C157.012 166.735 155.052 166.796 153.088 166.907L153.316 169.932ZM164.788 169.858C166.707 169.942 168.619 170.073 170.522 170.252L170.732 167.235C168.78 167.052 166.819 166.917 164.851 166.831L164.788 169.858ZM176.241 170.932C178.146 171.207 180.042 171.529 181.925 171.897L182.423 168.922C180.492 168.545 178.549 168.215 176.595 167.933L176.241 170.932ZM187.561 173.142C189.433 173.604 191.293 174.112 193.137 174.665L193.917 171.759C192.026 171.193 190.121 170.672 188.201 170.198L187.561 173.142ZM198.639 176.46C200.462 177.104 202.268 177.792 204.056 178.522L205.11 175.713C203.277 174.964 201.426 174.259 199.558 173.599L198.639 176.46ZM209.376 180.847C211.133 181.665 212.87 182.526 214.586 183.428L215.901 180.74C214.143 179.816 212.362 178.934 210.562 178.096L209.376 180.847ZM219.674 186.257C221.349 187.242 223.001 188.266 224.629 189.329L226.192 186.788C224.524 185.699 222.832 184.649 221.115 183.64L219.674 186.257ZM229.439 192.636C231.017 193.777 232.569 194.955 234.093 196.171L235.891 193.799C234.328 192.553 232.738 191.346 231.121 190.177L229.439 192.636ZM238.581 199.925C240.048 201.212 241.485 202.534 242.892 203.891L244.908 201.71C243.466 200.32 241.993 198.964 240.49 197.646L238.581 199.925ZM247.016 208.059C248.356 209.479 249.665 210.933 250.941 212.419L253.157 210.451C251.85 208.928 250.508 207.438 249.134 205.982L247.016 208.059ZM254.659 216.964C255.861 218.506 257.028 220.079 258.16 221.682L260.557 219.946C259.397 218.303 258.2 216.69 256.968 215.109L254.659 216.964ZM261.436 226.564C262.487 228.214 263.501 229.892 264.477 231.598L267.035 230.113C266.034 228.364 264.994 226.643 263.916 224.951L261.436 226.564ZM267.278 236.775C268.167 238.517 269.017 240.284 269.827 242.077L272.519 240.858C271.689 239.02 270.817 237.207 269.906 235.421L267.278 236.775ZM272.12 247.493C272.838 249.309 273.516 251.149 274.152 253.012L276.954 252.07C276.302 250.16 275.607 248.274 274.871 246.411L272.12 247.493ZM275.92 258.622C276.462 260.497 276.963 262.394 277.42 264.311L280.305 263.654C279.836 261.689 279.323 259.745 278.767 257.822L275.92 258.622ZM278.651 270.066C279.013 271.978 279.332 273.908 279.608 275.856L282.547 275.486C282.265 273.49 281.937 271.512 281.566 269.553L278.651 270.066ZM280.296 281.682C280.389 282.657 280.47 283.637 280.541 284.621L283.503 284.464C283.431 283.457 283.347 282.453 283.252 281.454L280.296 281.682ZM280.541 284.621L280.741 287.411L283.703 287.254L283.503 284.464L280.541 284.621ZM281.142 292.991L281.542 298.57L284.504 298.414L284.104 292.834L281.142 292.991ZM281.943 304.15L282.343 309.73L285.305 309.573L284.905 303.993L281.943 304.15ZM282.744 315.31L282.944 318.099L285.906 317.943L285.706 315.153L282.744 315.31Z" fill="white"/>
</g>
<defs>
<filter id="filter0_ddddd_1533_1716" x="0.921387" y="0.692017" width="306.723" height="376.844" filterUnits="userSpaceOnUse" color-interpolation-filters="sRGB">
<feFlood flood-opacity="0" result="BackgroundImageFix"/>
<feColorMatrix in="SourceAlpha" type="matrix" values="0 0 0 0 0 0 0 0 0 0 0 0 0 0 0 0 0 0 127 0" result="hardAlpha"/>
<feOffset dy="7"/>
<feGaussianBlur stdDeviation="3.5"/>
<feColorMatrix type="matrix" values="0 0 0 0 0 0 0 0 0 0 0 0 0 0 0 0 0 0 0.33 0"/>
<feBlend mode="normal" in2="BackgroundImageFix" result="effect1_dropShadow_1533_1716"/>
<feColorMatrix in="SourceAlpha" type="matrix" values="0 0 0 0 0 0 0 0 0 0 0 0 0 0 0 0 0 0 127 0" result="hardAlpha"/>
<feOffset dy="16"/>
<feGaussianBlur stdDeviation="5"/>
<feColorMatrix type="matrix" values="0 0 0 0 0 0 0 0 0 0 0 0 0 0 0 0 0 0 0.19 0"/>
<feBlend mode="normal" in2="effect1_dropShadow_1533_1716" result="effect2_dropShadow_1533_1716"/>
<feColorMatrix in="SourceAlpha" type="matrix" values="0 0 0 0 0 0 0 0 0 0 0 0 0 0 0 0 0 0 127 0" result="hardAlpha"/>
<feOffset dy="29"/>
<feGaussianBlur stdDeviation="6"/>
<feColorMatrix type="matrix" values="0 0 0 0 0 0 0 0 0 0 0 0 0 0 0 0 0 0 0.06 0"/>
<feBlend mode="normal" in2="effect2_dropShadow_1533_1716" result="effect3_dropShadow_1533_1716"/>
<feColorMatrix in="SourceAlpha" type="matrix" values="0 0 0 0 0 0 0 0 0 0 0 0 0 0 0 0 0 0 127 0" result="hardAlpha"/>
<feOffset dy="45"/>
<feGaussianBlur stdDeviation="6.5"/>
<feColorMatrix type="matrix" values="0 0 0 0 0 0 0 0 0 0 0 0 0 0 0 0 0 0 0.01 0"/>
<feBlend mode="normal" in2="effect3_dropShadow_1533_1716" result="effect4_dropShadow_1533_1716"/>
<feColorMatrix in="SourceAlpha" type="matrix" values="0 0 0 0 0 0 0 0 0 0 0 0 0 0 0 0 0 0 127 0" result="hardAlpha"/>
<feOffset dy="4"/>
<feGaussianBlur stdDeviation="2"/>
<feComposite in2="hardAlpha" operator="out"/>
<feColorMatrix type="matrix" values="0 0 0 0 0 0 0 0 0 0 0 0 0 0 0 0 0 0 0.25 0"/>
<feBlend mode="normal" in2="effect4_dropShadow_1533_1716" result="effect5_dropShadow_1533_1716"/>
<feBlend mode="normal" in="SourceGraphic" in2="effect5_dropShadow_1533_1716" result="shape"/>
</filter>
</defs>
</svg>
